<svg xmlns="http://www.w3.org/2000/svg" width="410" height="410" fill="none" viewBox="0 0 410 410">
  <path fill="#C1C1C1" d="M0 136.12C0 24.025 24.025 0 136.12 0h137.76C385.975 0 410 24.025 410 136.12v137.76C410 385.975 385.975 410 273.88 410H136.12C24.025 410 0 385.975 0 273.88V136.12Z"/>
  <path fill="#fff" d="M192 78.587c-8.5 2.2-15.2 6.3-22 13.2-6.4 6.5-10.3 13.3-12.5 21.5-2.3 9-2.2 96.7.1 104.6 2.6 8.8 6.3 15 12.8 21.5 15.6 15.5 37.9 18.9 58.1 8.7 6.4-3.3 16.5-13.4 19.8-19.8 5.6-11.2 5.7-11.9 5.7-62.5 0-50.7-.2-53-5.8-63.4-3.5-6.5-13.3-16.3-19.8-19.8-10.5-5.6-24.3-7.1-36.4-4Z"/>
  <path fill="#fff" d="M122.9 176.187c-5.2 1.7-6.9 6.1-6.9 17.7 0 13.6 1.7 28.8 4.1 36.7 9.9 32.1 37.4 56 71.2 61.7l3.7.6v19.8l-21.6.3-21.6.3-2.9 3.3c-4.4 4.9-3.4 11.9 2.2 14.8 4.1 2.1 103.7 2.1 107.8 0 5.6-2.9 6.6-9.9 2.2-14.8l-2.9-3.3-21.6-.3-21.6-.3v-19.8l3.8-.6c33.7-5.7 61.2-29.6 71.1-61.7 3.8-12.7 5.5-42.5 2.7-49.3-2.8-6.5-11.1-7.9-15.8-2.6-2.8 3.1-2.8 3.2-2.8 17.7 0 17.8-1.7 27.2-7 37.9-7.4 15.1-17.4 25.1-32.5 32.5-18.7 9.2-40.3 9.2-59 0-15.1-7.4-25.1-17.4-32.5-32.5-5.3-10.7-7-20.1-7-37.9 0-13.9-.1-14.6-2.5-17.4-2.9-3.5-6-4.3-10.6-2.8Z"/>
</svg>
